<?xml version="1.0" encoding="UTF-8" standalone="no"?>
<!-- Created with Inkscape (http://www.inkscape.org/) -->

<svg
   xmlns:dc="http://purl.org/dc/elements/1.1/"
   xmlns:cc="http://creativecommons.org/ns#"
   xmlns:rdf="http://www.w3.org/1999/02/22-rdf-syntax-ns#"
   xmlns:svg="http://www.w3.org/2000/svg"
   xmlns="http://www.w3.org/2000/svg"
   xmlns:xlink="http://www.w3.org/1999/xlink"
   xmlns:sodipodi="http://sodipodi.sourceforge.net/DTD/sodipodi-0.dtd"
   xmlns:inkscape="http://www.inkscape.org/namespaces/inkscape"
   width="637"
   height="785"
   id="svg2"
   version="1.1"
   inkscape:version="0.48.3.1 r9886"
   sodipodi:docname="Stuttgart.svg"
   inkscape:export-filename="/home/marian/uni/schiene/presentation/data/Stuttgart.png"
   inkscape:export-xdpi="180"
   inkscape:export-ydpi="180">
  <defs
     id="defs4" />
  <sodipodi:namedview
     id="base"
     pagecolor="#ffffff"
     bordercolor="#666666"
     borderopacity="1.0"
     inkscape:pageopacity="0.0"
     inkscape:pageshadow="2"
     inkscape:zoom="0.89808917"
     inkscape:cx="318.5"
     inkscape:cy="392.5"
     inkscape:document-units="px"
     inkscape:current-layer="layer1"
     showgrid="false"
     fit-margin-top="0"
     fit-margin-left="0"
     fit-margin-right="0"
     fit-margin-bottom="0"
     inkscape:window-width="1440"
     inkscape:window-height="882"
     inkscape:window-x="0"
     inkscape:window-y="18"
     inkscape:window-maximized="0" />
  <metadata
     id="metadata7">
    <rdf:RDF>
      <cc:Work
         rdf:about="">
        <dc:format>image/svg+xml</dc:format>
        <dc:type
           rdf:resource="http://purl.org/dc/dcmitype/StillImage" />
        <dc:title />
      </cc:Work>
    </rdf:RDF>
  </metadata>
  <g
     inkscape:label="Layer 1"
     inkscape:groupmode="layer"
     id="layer1"
     transform="translate(-65.876137,-21.714319)">
    <image
       y="21.714319"
       x="65.876137"
       id="image3076"
       xlink:href="file:///home/marian/uni/schiene/presentation/data/Stuttgart-raw.png"
       height="785"
       width="637" />
    <path
       style="font-size:medium;font-style:normal;font-variant:normal;font-weight:normal;font-stretch:normal;text-indent:0;text-align:start;text-decoration:none;line-height:normal;letter-spacing:normal;word-spacing:normal;text-transform:none;direction:ltr;block-progression:tb;writing-mode:lr-tb;text-anchor:start;baseline-shift:baseline;color:#000000;fill:#ffffff;fill-opacity:1;stroke:none;stroke-width:7;marker:none;visibility:visible;display:inline;overflow:visible;enable-background:accumulate;font-family:Sans;-inkscape-font-specification:Sans"
       d="M 180.9375,31.09375 C 173.28699,31.59081 173.17786,40.936434 173.875,46.65625 174.34879,54.2357 173.59356,61.893094 169.76485,68.409459 165.96884,85.410792 164.97871,104.28418 173.65625,119.96875 181.54751,134.93232 190.16816,149.44558 194.74115,165.87975 215.24862,224.15467 236.8282,282.13378 254.1875,341.34375 262.0177,371.70803 262.90278,403.43334 261.84375,434.6875 263.30168,449.82609 275.46936,461.04252 288.34375,467.375 304.50359,479.49032 312.28742,499.0054 322.78532,515.68496 340.34302,547.21208 354.01767,582.01642 378.43601,609.10259 402.94279,633.48688 436.46328,645.32675 465.45842,663.08043 480.64959,672.1507 496.69045,680.41125 514.42247,682.92648 539.36613,689.19908 564.92484,693.00379 589.5,700.625 598.23915,703.98483 601.94205,713.22841 602.70872,721.89038 607.42542,746.87699 606.80985,772.92605 600.31289,797.48234 599.70105,802.8624 596.18708,811.27476 602.875,814.1875 608.40887,816.79987 614.51783,811.88763 614.13959,805.95813 616.35929,796.72877 616.76764,786.49574 620.3125,778 629.32435,775.59733 638.92603,778.04006 648.15604,776.81456 669.33855,776.21327 690.72449,776.97492 711.78125,775.3125 719.08825,772.62439 716.22727,760.05586 708.4375,760.96875 681.99989,760.95649 655.47928,762.51159 629.09375,761.53125 623.07317,759.79538 619.23865,753.40036 620.50499,747.31645 618.86835,729.60299 619.45465,709.35275 607.4375,695.03125 594.05577,681.57837 573.51027,682.00087 556.30597,676.93529 535.63906,671.70619 514.03116,669.21604 494.1875,661.34375 469.89335,649.11186 446.62122,634.89062 422.43355,622.63268 402.53711,611.74085 384.06025,597.42139 373.12759,577.18242 349.17426,539.27146 334.10735,495.58834 304.78125,461.3125 296.93155,452.65562 282.84357,450.28236 278.1875,438.84375 274.71353,426.72536 278.32424,413.78591 277.15625,401.3125 276.70838,365.95617 268.41353,331.26788 256.5625,298.15625 239.68877,246.40848 220.96612,195.22795 202.78125,143.9375 196.82874,128.76422 185.72492,115.58061 182.09375,99.625 181.18971,90.230348 182.22181,80.374509 184.96875,71.5 190.3146,60.314212 189.31933,47.12454 188.125,35.21875 186.83689,32.575961 183.87342,30.857839 180.9375,31.09375 z"
       id="path4123"
       inkscape:connector-curvature="0" />
    <path
       style="font-size:medium;font-style:normal;font-variant:normal;font-weight:normal;font-stretch:normal;text-indent:0;text-align:start;text-decoration:none;line-height:normal;letter-spacing:normal;word-spacing:normal;text-transform:none;direction:ltr;block-progression:tb;writing-mode:lr-tb;text-anchor:start;baseline-shift:baseline;color:#000000;fill:#ffffff;fill-opacity:1;stroke:none;stroke-width:7;marker:none;visibility:visible;display:inline;overflow:visible;enable-background:accumulate;font-family:Sans;-inkscape-font-specification:Sans"
       d="M 115.1875 13.375 A 3.50035 3.50035 0 0 0 112.03125 16.84375 C 111.83099 26.883887 112.44943 34.10366 111.03125 40.25 C 110.46086 42.722089 107.38391 46.037948 106.8125 51.34375 C 104.11771 76.366086 102.42889 81.8844 118.15625 109.125 C 129.08711 128.05782 135.9202 153.12043 144.28125 176 C 160.13322 219.378 175.13056 263.08797 188.875 307.15625 C 198.82592 339.06149 201.5608 372.84615 199.8125 406.0625 C 198.90421 423.31913 209.16365 433.73421 220.28125 439.59375 C 228.60881 443.9828 234.53594 450.42103 239.6875 457.96875 C 256.62032 482.77761 267.41751 505.50754 279.34375 528.375 C 286.70912 542.49742 294.50495 556.67936 304.4375 571.28125 C 316.17017 588.52951 333.90585 601.16883 351.84375 610.75 C 376.34283 623.83569 395.31037 634.34696 418.03125 647 C 424.45807 650.57904 431.30074 653.11553 438.59375 654.8125 C 469.32874 661.96405 487.94485 665.89236 514.90625 671.9375 C 523.47418 673.85856 532.82541 677.97328 536.25 684.53125 C 539.23447 690.24642 540.69988 697.03384 541.65625 704.125 A 3.50035 3.50035 0 0 0 541.6875 704.375 C 542.10408 707.50537 542.44864 710.68047 542.78125 713.84375 C 543.36313 719.37773 543.74505 725.46314 543.875 731.46875 A 3.50035 3.50035 0 0 0 543.875 732.09375 C 543.87795 732.13443 543.87172 732.17812 543.875 732.21875 C 544.04577 741.65529 543.59883 750.82651 542.28125 757.21875 A 3.50035 3.50035 0 0 0 542.15625 757.90625 L 536.8125 785.0625 A 3.5025451 3.5025451 0 1 0 543.6875 786.40625 L 549.09375 758.875 A 3.50035 3.50035 0 0 0 549.125 758.625 L 549.6875 755.84375 C 549.94032 754.55438 550.5576 753.71326 551.9375 752.90625 C 553.3174 752.09924 555.49656 751.50825 558.28125 751.46875 L 566.9375 751.34375 L 642.8125 750.25 A 3.50035 3.50035 0 1 0 642.71875 743.25 L 566.875 744.34375 L 566.65625 744.34375 C 562.65657 744.3186 558.71721 742.59818 555.78125 740.0625 C 552.86703 737.5456 551.08868 734.28876 550.875 731.65625 C 550.87341 731.63661 550.87642 731.61332 550.875 731.59375 C 550.73131 725.30601 550.33241 718.96119 549.71875 713.125 C 549.38804 709.97972 549.06088 706.74408 548.625 703.46875 C 547.62504 695.95465 546.1008 688.2365 542.46875 681.28125 C 537.3422 671.4641 525.89543 667.2456 516.4375 665.125 C 489.43736 659.07118 470.86653 655.13853 440.1875 648 C 433.44983 646.43225 427.25038 644.11214 421.4375 640.875 C 398.70796 628.21714 379.70355 617.7052 355.15625 604.59375 C 337.79521 595.3207 320.99406 583.18459 310.21875 567.34375 C 300.53987 553.11476 292.92075 539.26575 285.625 525.28125 A 3.5011856 3.5011856 0 0 0 285.5625 525.15625 C 273.71714 502.44387 262.74377 479.34147 245.46875 454.03125 C 239.94077 445.93203 233.14603 438.47372 223.53125 433.40625 C 213.69697 428.22309 206.04921 420.90814 206.8125 406.40625 C 208.594 372.55926 205.82266 337.95924 195.5625 305.0625 C 181.77818 260.86638 166.72672 217.08784 150.84375 173.625 C 142.63276 151.15609 135.84447 125.76134 124.21875 105.625 C 108.75019 78.83266 111.02341 77.411274 113.75 52.09375 C 113.98619 49.900564 116.69742 46.780673 117.84375 41.8125 C 119.60775 34.16735 118.83889 26.643655 119.03125 17 A 3.50035 3.50035 0 0 0 115.1875 13.375 z M 550.71875 744.90625 C 550.88782 745.06016 551.04533 745.22523 551.21875 745.375 C 551.2795 745.42747 551.34492 745.47928 551.40625 745.53125 C 551.16229 745.61087 550.9254 745.6915 550.6875 745.78125 C 550.70473 745.49121 550.70324 745.1986 550.71875 744.90625 z "
       id="path4082"
       transform="translate(65.876137,21.714319)" />
    <path
       style="font-size:12px;font-style:normal;font-variant:normal;font-weight:bold;font-stretch:normal;text-align:start;line-height:100%;letter-spacing:0px;word-spacing:0px;writing-mode:lr-tb;text-anchor:start;fill:#ffffff;fill-opacity:1;stroke:none;font-family:Fontin Sans;-inkscape-font-specification:Fontin Sans Bold"
       d="M 541.84375,655.71875 C 536.87892,654.03816 540.0086,659.20392 537.15625,658.625 534.46792,659.47325 532.15192,658.27017 529.78125,658.4375 528.59279,653.94862 522.73707,658.11406 519.25,656.84375 515.84828,656.26481 515.81281,670.42078 520.40625,668.84375 524.82292,668.84375 529.23958,668.84375 533.65625,668.84375 532.82686,666.35198 536.67044,670.38271 538.53125,668.78125 547.41209,668.84856 555.81129,668.9738 564.65625,668.875 566.77822,667.55049 569.03039,669.86453 571.59375,668.84375 574.83332,669.15344 574.99524,667.87836 577.6875,669 581.46209,668.63191 586.27628,669.49877 589.78125,668.3125 593.00668,670.31027 598.50186,667.82979 596.65625,663.75 597.11453,660.29629 593.37929,657.25764 590.1875,659.125 589.50428,654.69043 582.54491,654.85632 581.28125,658.84375 578.22739,658.53964 575.53077,659.03889 572.875,658.625 570.64881,657.53458 567.09761,657.017 564.28125,658.65625 560.59631,660.24886 563.11713,655.65767 560.97504,655.58072 555.60051,653.87659 557.63159,659.24614 555,658.625 551.17016,659.46626 551.61517,656.27896 547.5,657.71875 540.89377,661.80889 547.31949,654.28587 541.84375,655.71875 z"
       id="text3946"
       inkscape:connector-curvature="0" />
    <path
       style="font-size:12px;font-style:normal;font-variant:normal;font-weight:bold;font-stretch:normal;text-align:start;line-height:100%;letter-spacing:0px;word-spacing:0px;writing-mode:lr-tb;text-anchor:start;fill:#ffffff;fill-opacity:1;stroke:none;font-family:Fontin Sans;-inkscape-font-specification:Fontin Sans Bold"
       d="M 366.28125,525.09375 C 360.9577,523.41036 364.71666,529.34664 361.0625,527.96875 358.42897,528.63092 356.94433,524.8664 353.59375,526.21875 348.99577,527.53082 351.11599,533.07723 350.28125,536.40625 352.22307,538.87941 355.78124,538.31237 358,537.875 364.19687,539.32119 371.27351,537.13902 377.59375,538.65625 380.73275,537.83932 384.33774,538.42936 388.25,538.15625 390.73651,538.53878 392.88638,537.53095 395.34375,538.34375 397.33486,537.53441 398.517,537.57122 400.53125,538.375 405.52168,537.75501 411.72294,538.88324 416.34375,537.84375 419.19009,538.99142 424.09247,538.0521 425.53125,537.78125 429.43694,538.93674 433.91999,538.30112 438.09375,538.0625 440.00722,536.81972 442.54965,539.64351 444.78125,537.6875 447.59133,536.1144 446.70385,531.4147 444.90625,529 443.65933,527.1318 440.47793,528.79441 439.78125,527.9375 438.5574,523.96329 432.17738,524.47837 430.96875,528.1875 427.18065,527.98476 424.22929,528.10476 420.5,528.15625 419.97783,524.57716 415.33978,528.53729 412.84375,528 409.77913,529.49081 407.40818,526.8156 404.09375,528.15625 401.15621,527.47008 398.50214,529.13271 395.75,528 393.47495,528.02391 391.99356,529.22326 389.875,527.96875 387.59753,528.65679 387.57673,528.26496 386.65625,526.375 384.53116,524.00272 382.13607,526.9743 381.15625,528.25 377.88466,527.00851 371.15704,529.64787 368.5,527.15625 368.79469,524.65658 368.68304,524.5959 366.28125,525.09375 z"
       id="text3950"
       inkscape:connector-curvature="0" />
    <path
       style="font-size:12px;font-style:normal;font-variant:normal;font-weight:bold;font-stretch:normal;text-align:start;line-height:100%;letter-spacing:0px;word-spacing:0px;writing-mode:lr-tb;text-anchor:start;fill:#ffffff;fill-opacity:1;stroke:none;font-family:Fontin Sans;-inkscape-font-specification:Fontin Sans Bold"
       d="M 339.9375,453.59375 C 337.21526,452.892 336.95308,458.05173 334.96875,456.25 330.08556,456.92986 324.70112,456.66531 320.6875,456.25 319.78971,452.6716 314.62495,454.5464 313.25741,455.66049 312.34365,454.47154 305.38518,454.64178 301.6875,454.71875 304.96596,458.14348 303.93575,465.75776 308.78125,466.84375 313.71881,467.12985 314.27156,465.78251 318.84375,466.75 322.05354,467.70688 329.27495,464.65214 329.46875,468.625 332.69794,471.83316 335.07424,468.63813 336.3125,466.1875 338.71056,467.75183 341.75598,465.84782 344.5,466.90625 351.595,466.4332 358.12427,466.96065 365.25,466.75 364.72528,464.18762 368.77376,456.17547 366.94336,464.90238 368.8097,467.61662 372.75577,466.73371 374.84375,466.25 377.53306,467.75634 380.90749,466.1388 383.84375,466.75 383.56126,465.76258 386.54028,467.3753 387.5625,466.96875 390.9829,466.40688 395.10341,467.43123 398.0625,466.1875 401.3745,468.29085 406.81364,465.57423 404.96875,461.5 405.32721,458.0585 401.56305,455.245 398.5,456.96875 397.78669,452.5713 390.87001,452.77006 389.59375,456.71875 386.63343,456.33971 384.00191,457.05463 381.38758,456.50519 378.91133,455.63297 377.09762,455.83405 373.53125,454.875 371.09542,453.93565 367.88586,455.09847 367.25,457.78125 364.29021,455.07289 360.17981,457.17062 356.46875,456.65625 353.86983,458.68551 351.60337,454.90725 348.56885,456.61249 344.84846,457.33243 344.00954,456.2111 342.78125,454.25 341.93211,453.77386 340.91464,453.48638 339.9375,453.59375 z"
       id="text3954"
       inkscape:connector-curvature="0" />
    <path
       style="font-size:12px;font-style:normal;font-variant:normal;font-weight:bold;font-stretch:normal;text-align:start;line-height:100%;letter-spacing:0px;word-spacing:0px;writing-mode:lr-tb;text-anchor:start;fill:#ffffff;fill-opacity:1;stroke:none;font-family:Fontin Sans;-inkscape-font-specification:Fontin Sans Bold"
       d="M 312.90625,304.84375 C 307.692,303.22608 311.38424,308.69378 307.75,307.78125 304.97084,308.31815 301.62441,307.0037 299.25,308.6875 296.75946,306.42803 293.26585,309.35577 292,305.71875 288.95783,304.40351 286.64547,307.92828 283.3125,307.0625 281.92805,308.18962 277.85347,308.03481 275.03125,307.75 273.15189,307.44901 270.95452,309.56552 272.03125,305.96875 268.48997,307.14967 258.79692,303.06835 261.1875,309.3125 259.58403,316.5618 262.30741,319.48425 269.46875,317.96875 272.10511,317.83596 275.19893,318.27995 277.78125,317.59375 283.28243,318.90177 288.97351,317.43348 294.90625,317.96875 298.1091,316.96411 299.08426,321.89382 302.75,320.875 305.81657,321.21908 306.43878,317.34363 309.25,318 321.91552,317.98809 334.95609,318.00461 347.53125,317.96875 348.38006,317.32689 350.80102,309.01772 350.67599,313.58382 349.09811,318.27165 355.62997,318.7627 358.21875,317.375 360.86212,319.0651 364.3383,317.31663 367.28125,317.96875 367.00938,316.82706 370.01552,318.6981 370.96875,318.21875 374.38033,317.56264 378.55478,318.68394 381.53125,317.4375 384.76936,319.41357 390.26915,316.99692 388.46875,312.875 389.15391,309.05064 384.59002,306.83967 381.9375,307.96875 381.04726,303.75921 374.28621,304.12538 373.09375,307.96875 370.15043,307.59546 367.4852,308.27776 364.91883,307.72394 362.42153,306.86663 360.60809,307.0453 357.03125,306.09375 354.22595,304.55171 351.29231,307.52951 350.40625,308.78125 347.56102,306.38973 343.49756,308.4158 339.96875,307.90625 337.83596,309.91229 335.77554,306.56814 333.28125,308.125 330.8297,306.94477 328.13893,309.0079 327.03125,305.84375 325.07743,304.09745 322.61272,306.53896 322.28125,307.9375 319.8478,306.84321 318.0591,309.8396 316.09375,307.84375 313.15028,308.18694 317.7013,302.46192 312.90625,304.84375 z"
       id="text3958"
       inkscape:connector-curvature="0" />
    <path
       style="font-size:12px;font-style:normal;font-variant:normal;font-weight:bold;font-stretch:normal;text-align:start;line-height:100%;letter-spacing:0px;word-spacing:0px;writing-mode:lr-tb;text-anchor:start;fill:#ffffff;fill-opacity:1;stroke:none;font-family:Fontin Sans;-inkscape-font-specification:Fontin Sans Bold"
       d="M 247.90625,151.46875 C 242.64321,149.48933 246.30106,155.72819 243.15625,154.375 239.52599,155.20359 239.94094,152.21845 236.25685,153.39809 233.53687,154.6895 231.32564,154.32459 227.6875,154.5 224.96062,154.15857 221.50904,154.74592 218.40625,154.46875 222.26805,151.58044 206.2026,151.16213 207.77514,154.57473 207.99293,160.09382 206.30647,166.89555 214.09375,164.59375 220.76893,164.64802 225.79093,164.473 232.625,164.59375 238.9527,164.61568 244.9889,164.66685 251,164.59375 254.01174,164.84685 256.80045,164.34103 259.90625,164.59375 258.2129,161.79607 263.44367,155.00972 261.71165,161.46633 261.56846,165.25889 267.12911,165.08666 269.375,164 271.99804,165.69841 275.47565,163.93726 278.40625,164.59375 278.05625,163.34939 281.10737,165.45772 282.09375,164.8125 285.62562,164.36579 289.75822,165.08844 292.875,164.15625 296.27697,166.01406 301.44801,163.37818 299.625,159.34375 299.98736,155.94623 296.19701,153.10791 293.09375,154.8125 292.47866,150.40011 285.41836,150.66005 284.25,154.59375 281.30485,154.18588 278.61357,154.9198 276.04383,154.34894 273.48242,153.51978 271.69025,153.64606 268.0625,152.6875 265.28906,151.16703 262.4302,154.27983 261.5625,155.40625 258.72629,153.01097 254.66318,155.05802 251.125,154.53125 248.04032,156.10039 252.80563,148.74412 247.90625,151.46875 z"
       id="text3962"
       inkscape:connector-curvature="0" />
    <path
       style="font-size:12px;font-style:normal;font-variant:normal;font-weight:bold;font-stretch:normal;text-align:start;line-height:100%;letter-spacing:0px;word-spacing:0px;writing-mode:lr-tb;text-anchor:start;fill:#ffffff;fill-opacity:1;stroke:none;font-family:Fontin Sans;-inkscape-font-specification:Fontin Sans Bold"
       d="M 228.46875,31.0625 C 223.12604,29.577139 226.92341,35.202435 223,33.96875 218.84633,34.25337 214.40754,33.886909 210.15625,34.125 206.49716,33.784878 202.39824,34.090906 198.46875,34.125 198.89905,31.242601 194.06909,33.919288 192,32.125 188.01139,31.066407 185.52976,35.41472 186.61925,38.807537 184.2326,43.79775 191.01065,45.500832 193.9375,43.5 196.18383,45.102981 198.83242,43.680138 201.3125,44.25 219.2632,44.091404 236.97596,44.277239 254.9375,44.1875 254.35752,40.675459 256.07371,33.518591 250.28125,33.96875 248.10086,34.283236 245.16626,34.033281 243.65625,33.625 242.71218,29.942671 238.11574,32.035026 237.6875,34.0625 235.26199,33.250884 233.61928,35.969709 231.65625,34.0625 228.71278,34.405694 233.2638,28.680672 228.46875,31.0625 z"
       id="text3966"
       inkscape:connector-curvature="0" />
    <path
       style="fill:none;stroke:#cc0000;stroke-width:7;stroke-linecap:round;stroke-linejoin:round;stroke-miterlimit:4;stroke-opacity:1;stroke-dasharray:none;stroke-dashoffset:0"
       d="M 632.50313,769.56924 C 622.58577,769.50687 613.808,761.2991 613.24664,753.56481"
       id="path3851"
       inkscape:connector-curvature="0"
       sodipodi:nodetypes="cc" />
    <path
       style="fill:none;stroke:#cc0000;stroke-width:7;stroke-linecap:round;stroke-linejoin:round;stroke-miterlimit:4;stroke-opacity:1;stroke-dasharray:none;stroke-dashoffset:0"
       d="M 611.57706,779.65089 C 613.92687,768.25079 613.67097,749.94349 612.12178,735.20996 611.79012,732.05568 611.46453,728.8415 611.0383,725.63865"
       id="path3081"
       inkscape:connector-curvature="0"
       sodipodi:nodetypes="csc" />
    <path
       style="fill:none;stroke:#555555;stroke-width:7;stroke-linecap:round;stroke-linejoin:round;stroke-miterlimit:4;stroke-opacity:1;stroke-dasharray:none;stroke-dashoffset:0"
       d="M 606.12646,807.45352 612.12178,776.8774 C 613.01865,772.30338 617.65353,769.77465 624.11241,769.68303 L 708.64637,768.48396"
       id="path3079"
       inkscape:connector-curvature="0"
       sodipodi:nodetypes="cssc" />
    <path
       style="fill:none;stroke:#cc0000;stroke-width:7;stroke-linecap:round;stroke-linejoin:round;stroke-miterlimit:4;stroke-opacity:1;stroke-dasharray:none;stroke-dashoffset:0"
       d="M 348.32107,548.49044 C 336.43527,525.70052 325.56294,502.77067 308.45902,477.71113 303.11925,469.88766 296.74635,462.95461 287.77518,458.22635 277.29924,452.705 268.35391,443.82926 269.1897,427.95 270.9546,394.41833 268.2039,360.22921 258.09836,327.82822 244.33398,283.69602 229.30073,239.95122 213.43326,196.5308 205.14724,173.85656 198.33215,148.61807 187.05386,129.08349 171.4559,102.06702 173.44924,98.599353 176.15993,73.429423 176.56373,69.679929 179.45284,66.480104 180.3112,62.759973 181.90229,55.864228 181.21298,48.476458 181.40929,38.634562"
       id="path3868"
       inkscape:connector-curvature="0"
       sodipodi:nodetypes="cssssasssc" />
    <path
       sodipodi:nodetypes="cssssssc"
       inkscape:connector-curvature="0"
       id="path3866"
       d="M 611.0383,725.63865 C 610.06047,718.29084 608.55295,711.00261 605.22717,704.63385 600.9516,696.44629 590.5586,692.26592 581.54567,690.24509 554.5649,684.19561 535.97379,680.26834 505.26678,673.1233 498.25144,671.49094 491.74046,669.07238 485.62061,665.66429 462.8954,653.00884 443.89556,642.4912 419.37237,629.39263 401.7229,619.96552 384.46242,607.56715 373.20843,591.0226 363.38841,576.58613 355.66147,562.56497 348.32107,548.49044"
       style="fill:none;stroke:#2222cc;stroke-width:7;stroke-linecap:butt;stroke-linejoin:round;stroke-miterlimit:4;stroke-opacity:1;stroke-dasharray:none;stroke-dashoffset:0" />
    <path
       sodipodi:type="arc"
       style="fill:#000000;fill-opacity:1;fill-rule:evenodd;stroke:none"
       id="path3892"
       sodipodi:cx="547.51276"
       sodipodi:cy="726.05725"
       sodipodi:rx="4.8651166"
       sodipodi:ry="4.8651166"
       d="M 552.37787,726.05725 C 552.37787,728.74418 550.19969,730.92237 547.51276,730.92237 544.82583,730.92237 542.64764,728.74418 542.64764,726.05725 542.64764,723.37032 544.82583,721.19213 547.51276,721.19213 550.19969,721.19213 552.37787,723.37032 552.37787,726.05725 z"
       transform="translate(65.267237,20.965839)" />
    <path
       transform="translate(-25.041262,-49.103506)"
       d="M 552.37787,726.05725 C 552.37787,728.74418 550.19969,730.92237 547.51276,730.92237 544.82583,730.92237 542.64764,728.74418 542.64764,726.05725 542.64764,723.37032 544.82583,721.19213 547.51276,721.19213 550.19969,721.19213 552.37787,723.37032 552.37787,726.05725 z"
       sodipodi:ry="4.8651166"
       sodipodi:rx="4.8651166"
       sodipodi:cy="726.05725"
       sodipodi:cx="547.51276"
       id="path3898"
       style="fill:#000000;fill-opacity:1;fill-rule:evenodd;stroke:none"
       sodipodi:type="arc" />
    <path
       sodipodi:type="arc"
       style="fill:#000000;fill-opacity:1;fill-rule:evenodd;stroke:none"
       id="path3904"
       sodipodi:cx="547.51276"
       sodipodi:cy="726.05725"
       sodipodi:rx="4.8651166"
       sodipodi:ry="4.8651166"
       d="M 552.37787,726.05725 C 552.37787,728.74418 550.19969,730.92237 547.51276,730.92237 544.82583,730.92237 542.64764,728.74418 542.64764,726.05725 542.64764,723.37032 544.82583,721.19213 547.51276,721.19213 550.19969,721.19213 552.37787,723.37032 552.37787,726.05725 z"
       transform="translate(-207.19364,-192.45255)" />
    <path
       transform="translate(-254.09264,-263.9177)"
       d="M 552.37787,726.05725 C 552.37787,728.74418 550.19969,730.92237 547.51276,730.92237 544.82583,730.92237 542.64764,728.74418 542.64764,726.05725 542.64764,723.37032 544.82583,721.19213 547.51276,721.19213 550.19969,721.19213 552.37787,723.37032 552.37787,726.05725 z"
       sodipodi:ry="4.8651166"
       sodipodi:rx="4.8651166"
       sodipodi:cy="726.05725"
       sodipodi:cx="547.51276"
       id="path3910"
       style="fill:#000000;fill-opacity:1;fill-rule:evenodd;stroke:none"
       sodipodi:type="arc" />
    <path
       sodipodi:type="arc"
       style="fill:#000000;fill-opacity:1;fill-rule:evenodd;stroke:none"
       id="path3916"
       sodipodi:cx="547.51276"
       sodipodi:cy="726.05725"
       sodipodi:rx="4.8651166"
       sodipodi:ry="4.8651166"
       d="M 552.37787,726.05725 C 552.37787,728.74418 550.19969,730.92237 547.51276,730.92237 544.82583,730.92237 542.64764,728.74418 542.64764,726.05725 542.64764,723.37032 544.82583,721.19213 547.51276,721.19213 550.19969,721.19213 552.37787,723.37032 552.37787,726.05725 z"
       transform="translate(-294.08242,-412.88485)" />
    <path
       transform="translate(-346.92556,-565.86493)"
       d="M 552.37787,726.05725 C 552.37787,728.74418 550.19969,730.92237 547.51276,730.92237 544.82583,730.92237 542.64764,728.74418 542.64764,726.05725 542.64764,723.37032 544.82583,721.19213 547.51276,721.19213 550.19969,721.19213 552.37787,723.37032 552.37787,726.05725 z"
       sodipodi:ry="4.8651166"
       sodipodi:rx="4.8651166"
       sodipodi:cy="726.05725"
       sodipodi:cx="547.51276"
       id="path3922"
       style="fill:#000000;fill-opacity:1;fill-rule:evenodd;stroke:none"
       sodipodi:type="arc" />
    <path
       sodipodi:type="arc"
       style="fill:#000000;fill-opacity:1;fill-rule:evenodd;stroke:none"
       id="path3928"
       sodipodi:cx="547.51276"
       sodipodi:cy="726.05725"
       sodipodi:rx="4.8651166"
       sodipodi:ry="4.8651166"
       d="M 552.37787,726.05725 C 552.37787,728.74418 550.19969,730.92237 547.51276,730.92237 544.82583,730.92237 542.64764,728.74418 542.64764,726.05725 542.64764,723.37032 544.82583,721.19213 547.51276,721.19213 550.19969,721.19213 552.37787,723.37032 552.37787,726.05725 z"
       transform="translate(-366.27041,-687.26374)" />
    <g
       id="g4022">
      <path
         style="font-size:18px;font-style:normal;font-variant:normal;font-weight:bold;font-stretch:normal;text-align:start;line-height:100%;letter-spacing:0px;word-spacing:0px;writing-mode:lr-tb;text-anchor:start;fill:#ffffff;fill-opacity:1;stroke:none;font-family:Fontin Sans;-inkscape-font-specification:Fontin Sans Bold"
         d="M 589.71875,788.0625 C 592.69102,794.28158 581.84317,797.42838 589.41215,801.33045 591.92611,806.85747 601.40239,799.05491 598.25,796.40625 593.25188,792.78452 598.98086,783.17159 589.71875,786.0625 L 589.71875,787.0625 589.71875,788.0625 z"
         id="text4042"
         inkscape:connector-curvature="0" />
      <path
         style="font-size:18px;font-style:normal;font-variant:normal;font-weight:bold;font-stretch:normal;text-align:start;line-height:100%;letter-spacing:0px;word-spacing:0px;writing-mode:lr-tb;text-anchor:start;fill:#ffffff;fill-opacity:1;stroke:none;font-family:Fontin Sans;-inkscape-font-specification:Fontin Sans Bold"
         d="M 526.21875,770.4375 C 521.43715,770.64514 520.54249,776.05539 521.31792,779.7443 519.34662,783.94937 522.68223,787.13577 526.6875,786.875 529.41005,787.45981 531.01782,783.4444 532.71875,786.40625 535.62127,788.13676 538.357,784.742 540.9375,786.8125 544.95152,786.82296 548.30263,786.08983 552.375,786.875 554.73487,786.80721 556.31741,785.27892 558.40625,786.84375 561.32373,786.16971 561.20817,790.83312 564.5,790.8125 568.0605,791.94076 572.3403,789.6864 573.40625,786.71875 577.9437,786.93565 582.12148,786.48124 587,786.65625 586.51541,784.65794 585.86153,775.72291 588.03125,782.125 587.19204,787.78593 596.35702,788.35609 597.33547,783.97397 594.15637,779.63497 599.88675,774.38983 594.96875,773.5625 595.60685,769.55999 588.39252,772.34239 587.21875,773.28125 584.72205,772.53218 580.61955,774.53268 579,773.875 574.68005,772.6735 570.05933,773.93215 565.59375,773.375 560.73287,775.03082 562.08987,769.6098 556.65625,771.96875 554.94337,774.20288 551.02236,769.34889 546.875,773.3125 542.20483,773.729 537.50395,773.68774 535.20102,771.63844 531.75626,773.01229 529.63481,769.87735 526.21875,770.4375 z M 536.9375,779.21875 C 538.36807,779.22622 535.71137,781.25525 536.9375,779.21875 z M 554.40625,779.21875 C 556.14457,778.98791 553.13478,781.34403 554.40625,779.21875 z M 594.375,779.21875 C 597.62687,778.44436 592.90278,781.40504 594.375,779.21875 z"
         id="text4046"
         inkscape:connector-curvature="0" />
      <path
         style="font-size:18px;font-style:normal;font-variant:normal;font-weight:bold;font-stretch:normal;text-align:start;line-height:100%;letter-spacing:0px;word-spacing:0px;writing-mode:lr-tb;text-anchor:start;fill:#ffffff;fill-opacity:1;stroke:none;font-family:Fontin Sans;-inkscape-font-specification:Fontin Sans Bold"
         d="M 479.09375,736.03125 C 473.13835,734.0417 475.70892,740.55395 474.46875,741.28125 470.88906,738.98683 466.27395,741.35713 463.15625,740.84375 461.20516,739.35459 456.56094,742.26714 459.02494,738.52096 458.52776,735.91012 454.19288,735.74877 451.65625,736.28125 448.49449,735.1809 444.42514,736.85811 443.53125,740.21875 437.64345,741.75706 435.28419,739.50842 431.53125,737.6875 426.34484,735.2483 417.1817,740.30677 422.75,743.53125 430.26877,742.25242 415.52037,753.04909 423.1875,753.71875 428.84744,753.58337 433.57689,753.7899 438.84375,753.75 443.96993,753.67949 450.27269,753.73537 456.03125,753.71875 454.78857,749.05535 457.90955,754.71963 460.21875,753.9375 463.24971,753.84175 464.73311,752.82302 467.375,753.71875 475.51827,753.62278 483.57324,753.8489 491.21875,753.6875 494.39832,753.27155 498.26228,754.18296 501.71875,753.625 504.358,753.78944 507.97027,753.55362 511.125,753.875 513.38008,753.54299 514.3806,751.09019 516.25,753.4375 519.19847,755.00161 522.25825,752.43064 524.40625,753.71875 527.94638,752.78487 536.76301,756.38247 534.21875,750.21875 534.99332,746.45698 534.617,740.001 529.34375,740.34375 526.11093,739.66491 522.79809,741.98767 519.71875,740.40625 516.9332,739.98038 514.92971,742.45443 512.4375,740.59375 510.562,740.18761 508.39454,740.27338 506.8125,741.4375 504.60024,739.15192 498.83102,740.785 494.5,740.90625 493.91747,741.30029 490.2815,739.45709 488.4375,740.8125 486.5326,742.06161 485.68621,741.99399 483.90625,740.625 480.54695,741.00479 481.18788,738.56599 481.3125,735.78125 480.57292,735.86458 479.83333,735.94792 479.09375,736.03125 z M 568.75,736.03125 C 563.8943,736.81155 561.15515,739.20165 557.03125,740.625 555.81656,740.91998 552.06772,739.66572 550.03125,741.3125 548.70924,742.02728 548.16911,738.18159 546.09375,738.21875 543.33656,737.1372 540.25607,737.93673 537.375,737.6875 538.98166,742.68695 536.41494,750.36235 538.90625,753.71875 544.28441,753.7241 545.9871,753.37925 551.5,753.90625 555.6097,753.60879 559.5408,753.55142 563.71875,753.84375 569.48935,753.28984 575.37138,754.11027 581.03125,753.625 584.17171,753.36776 587.93601,754.10876 591.34375,753.65625 593.98296,753.78582 597.57861,753.53808 600.71875,753.875 604.35248,753.76284 606.44911,748.94434 604.03125,746.25 605.95695,742.97597 604.37192,740.463 600.875,740.40625 599.2527,739.45996 595.95008,742.69701 596.5,740.125 592.14495,741.29993 587.68492,739.23889 584.21875,741.4375 581.60812,739.04502 577.5625,741.2005 575.4375,741.78125 574.07802,739.47456 569.50862,741.804 570.96875,738.03125 571.13419,735.39398 571.34982,735.6512 568.75,736.03125 z M 564.75,740.125 C 564.3059,742.85618 564.63572,736.80888 564.75,740.125 z M 432.5,744.46875 C 433.73501,750.40249 427.50892,748.44295 432.5,744.46875 z M 549.1875,746.125 C 547.4169,748.59608 548.32018,746.46514 549.1875,746.125 z M 564.34375,746.3125 C 565.90735,746.14578 563.132,748.343 564.34375,746.3125 z"
         id="text4050"
         inkscape:connector-curvature="0" />
      <path
         style="font-size:18px;font-style:normal;font-variant:normal;font-weight:bold;font-stretch:normal;text-align:start;line-height:100%;letter-spacing:0px;word-spacing:0px;writing-mode:lr-tb;text-anchor:start;fill:#ffffff;fill-opacity:1;stroke:none;font-family:Fontin Sans;-inkscape-font-specification:Fontin Sans Bold"
         d="M 553.8125,651.1875 C 548.00898,649.2496 550.55469,655.1172 548.9375,655.875 545.98326,654.32938 543.35651,657.63025 540.875,655.5625 538.61795,654.51323 533.93594,657.78462 534.34375,653.78125 532.15695,649.47799 527.85397,654.36897 524.5625,652.84375 519.82016,651.70216 515.92506,653.19588 518,659.75 516.39905,665.87811 518.99998,671.64404 524.75,668.25 529.24538,669.64161 535.11499,668.42783 540.125,668.84375 540.06393,667.76401 538.92219,660.56281 540.15625,662.46875 539.71693,667.43144 545.61189,670.899 549.75,668.1875 552.28867,669.193 559.6715,669.26719 562.0625,668.25 564.92896,670.35864 568.01781,667.4918 570.9375,669.09375 576.43764,668.64123 581.94909,668.88837 587.5625,668.9375 589.46598,668.3813 590.36475,666.67495 591.84375,668.6875 595.51561,669.65202 599.0916,668.23009 602.9375,668.84375 603.20281,667.56602 600.95793,660.23831 603.625,662.5 601.28052,666.17781 605.9594,670.5984 609.6875,668.71875 613.6524,668.80077 618.72652,669.34244 623.0625,668.6875 625.26957,666.11484 627.03126,669.77779 629.84375,669.0625 633.31139,668.91922 636.3903,666.50665 634.90625,663 635.77231,658.31296 631.08123,653.45517 626.5,656.1875 624.01191,658.67809 625.82745,655.47622 624.65625,653.875 622.18438,649.49975 614.52092,651.01275 613.53125,655.84375 611.48566,656.11191 607.85378,654.91891 605.375,656.3125 602.63232,653.89235 597.38837,657.43315 596.10391,654.75541 594.39502,651.54722 589.56633,656.10257 587.25,655.53125 585.35577,654.61437 581.78222,658.23813 582.84375,654.53125 585.5578,648.95179 573.08703,650.16363 576.625,655.25 577.47988,658.82898 573.89945,654.26894 571.8125,655.53125 567.67068,657.18945 567.74392,653.41934 564.65625,653.90625 560.94371,652.83851 560.86207,656.7639 558.40625,655.6875 554.30868,656.73817 557.42614,651.2781 555.00496,651.06825 L 554.00993,651.16776 553.8125,651.1875 z M 528.3125,659.59375 C 529.68319,665.37495 525.25438,658.85367 528.3125,659.59375 z M 623.6875,659.46875 C 623.88396,660.36848 622.9419,659.52275 623.6875,659.46875 z M 546.71875,661.21875 C 549.73166,661.61222 546.03924,664.79596 546.46875,662 546.49216,661.75757 546.52733,661.37064 546.71875,661.21875 z M 566.8125,661.4375 C 569.20709,660.60828 565.37168,663.83897 566.8125,661.4375 z M 595.875,661.4375 C 597.65838,661.37508 594.51562,663.64325 595.875,661.4375 z"
         id="text4054"
         inkscape:connector-curvature="0" />
      <path
         style="font-size:18px;font-style:normal;font-variant:normal;font-weight:bold;font-stretch:normal;text-align:start;line-height:100%;letter-spacing:0px;word-spacing:0px;writing-mode:lr-tb;text-anchor:start;fill:#ffffff;fill-opacity:1;stroke:none;font-family:Fontin Sans;-inkscape-font-specification:Fontin Sans Bold"
         d="M 373.59375,520.53125 C 367.23103,518.06793 370.65797,525.97501 368.78125,525.75 366.67421,524.35229 363.72991,524.67591 361.59375,525.875 362.48438,521.23193 353.1191,520.44367 351.40625,524.9375 350.11139,528.51018 351.70688,532.39194 350.5625,536.15625 353.19063,538.98977 357.99143,538.82605 360.625,537.125 364.65598,540.00885 369.33867,537.34479 374,538.21875 380.12045,538.76871 384.32993,537.14423 389.23131,538.59866 390.50555,535.13144 397.74285,542.10826 398.03125,533.5 395.42794,539.84627 403.80525,538.4418 405.15625,537.46875 408.41591,540.05392 412.03361,536.33965 415.21875,538.375 417.31831,539.05712 419.70499,537.40018 421,536.84375 423.07723,538.84013 426.33394,538.7969 428.8125,537.59375 432.18177,539.27716 438.44473,537.39538 442.25,538.3125 444.38621,539.2722 447.03152,537.18452 448.28125,537.0625 451.83566,540.03107 456.56045,537.09416 460.6875,538.21875 460.61859,537.04006 459.26453,528.78704 461.125,532.375 459.39381,536.08899 463.98276,539.79512 467.4375,538.0625 471.52512,538.05004 476.76929,538.94373 481.21875,537.90625 483.24399,535.48423 485.40552,539.60581 488.1875,538.34375 491.4674,538.07025 493.9304,535.58969 492.59375,532.34375 493.71783,527.36181 488.23342,522.52538 483.75,525.84375 481.71887,528.17687 483.81427,522.71626 481.53125,522.0625 478.32081,519.20551 472.25967,520.82027 471.28125,525.1875 469.22432,525.54641 465.72818,524.11858 463.15625,525.6875 460.20853,523.73655 457.11241,525.46543 453.71875,525.125 454.35522,520.32752 444.46892,525.12089 445.6875,525 443.39461,523.88083 440.77988,526.31783 439.34375,526.15625 435.94133,523.18313 430.61016,525.88818 427.6875,525.375 424.54394,523.52993 421.62477,527.14002 418.8125,525.09375 416.45348,523.8666 413.58657,526.14293 412.09375,526.09375 409.9237,524.16499 406.208,524.52232 404.28125,526.625 406.09079,522.5726 400.0941,518.80457 398.125,523.1875 395.82114,527.76059 394.00256,525.42327 390.6655,525.04197 386.54514,524.39197 378.98791,526.48588 375.78125,524.125 375.31422,522.07207 377.29016,519.21795 373.59375,520.53125 z M 481.40625,528.90625 C 480.97324,529.75742 481.46521,528.33233 481.40625,528.90625 z M 376.1875,530.78125 C 375.88397,532.65703 375.28209,530.22519 376.1875,530.78125 z M 453.625,530.78125 C 455.28312,530.7351 452.31683,532.90875 453.625,530.78125 z M 383.46875,532.53125 C 380.62134,533.68589 383.96044,529.47602 383.46875,532.53125 z"
         id="text4058"
         inkscape:connector-curvature="0" />
      <path
         style="font-size:18px;font-style:normal;font-variant:normal;font-weight:bold;font-stretch:normal;text-align:start;line-height:100%;letter-spacing:0px;word-spacing:0px;writing-mode:lr-tb;text-anchor:start;fill:#ffffff;fill-opacity:1;stroke:none;font-family:Fontin Sans;-inkscape-font-specification:Fontin Sans Bold"
         d="M 357.15625,449.03125 C 353.76205,448.94963 353.5814,453.84754 351.75,454.0625 348.36013,452.02035 343.94358,454.64607 341.3125,453.8125 338.62634,452.66084 336.06775,454.5973 333.4375,453.375 331.32733,452.69166 326.93196,455.42365 327.3125,451.5 325.29495,447.70655 321.53475,451.68113 318.625,450.71875 316.86376,459.92795 316.24381,447.0073 309.375,450.71875 301.67421,449.32694 301.14117,451.71938 305.03919,457.7502 305.9729,461.61143 308.92386,470.55692 313.1875,465.71875 314.82619,466.94581 321.43796,467.87773 321.375,460.53125 319.05987,468.1068 325.54154,466.88555 330.9375,466.75 334.52454,467.76713 342.35073,464.54511 342.75,468.75 342.76515,473.42533 351.86156,471.43893 349.40625,466.84375 352.24193,466.12909 353.19464,463.48976 354,466.75 358.76136,469.19418 358.81387,463.27604 360.5625,465.71875 363.43972,468.43856 367.60833,465.51184 369.9375,466.75 373.46549,466.71797 379.36734,467.06314 380.71875,466.0625 383.61297,468.26575 387.3666,465.47979 389.59375,466.75 395.61052,468.52671 393.81554,463.85247 393.90625,459.78125 395.9176,464.42883 399.27983,455.82127 396.84375,454.3125 393.0071,451.54185 388.58361,455.34783 384.90625,453.40625 382.60532,452.50754 380.16821,455.37512 378.9375,455.1875 375.75882,451.52037 369.93284,454.3242 366.90625,453.90625 364.91107,452.37782 360.12095,455.31155 362.57473,451.51552 362.71434,449.80783 358.87342,448.7429 357.15625,449.03125 z M 438.28125,449.1875 C 435.72447,449.38521 433.2174,451.14819 432.625,453.71875 430.58468,454.20147 427.16353,452.43833 424.625,454.3125 421.71625,452.21593 418.50871,453.99633 415.09375,453.65625 416.33287,449.17204 410.08725,453.70536 407.9375,451.0625 403.43642,448.5983 397.38673,453.23437 399.59375,458.0625 398.85143,461.59898 398.16856,466.14179 402.65625,466.71875 405.03649,467.79902 407.97282,466.04818 409.4375,465.25 412.29321,468.8097 417.19448,465.56009 420.8125,466.75 423.707,466.79512 420.31541,461.65607 421.75,459.6875 423.10986,461.26597 421.19688,464.71793 423.96875,466.09375 428.02415,468.05743 432.11652,465.99179 436.5,466.75 439.10803,466.98935 442.36147,467.28523 444.25,465.375 447.44219,468.7436 456.33111,466.5329 453.71875,461.15625 455.49401,456.30897 449.61631,450.86724 445.03125,454.40625 443.36071,456.43848 444.87696,449.40034 441.375,449.6875 440.42387,449.24462 439.3305,449.09432 438.28125,449.1875 z M 442.78125,457.40625 C 442.79405,458.26086 442.11768,457.22893 442.78125,457.40625 z M 414.96875,459.3125 C 416.5619,459.1545 413.72503,461.41619 414.96875,459.3125 z"
         id="text4062"
         inkscape:connector-curvature="0" />
      <path
         style="font-size:18px;font-style:normal;font-variant:normal;font-weight:bold;font-stretch:normal;text-align:start;line-height:100%;letter-spacing:0px;word-spacing:0px;writing-mode:lr-tb;text-anchor:start;fill:#ffffff;fill-opacity:1;stroke:none;font-family:Fontin Sans;-inkscape-font-specification:Fontin Sans Bold"
         d="M 338.46875,300.28125 C 332.57471,298.27041 335.41722,304.42934 333.59375,304.875 329.20076,304.65802 324.61805,304.45399 320.3125,305.03125 318.35029,306.47117 317.68781,306.66055 315.8125,304.96875 313.18853,303.83315 309.70629,305.49063 307.9375,304.46875 308.43637,300.61696 302.2383,299.64517 301.5625,303.46875 297.66515,301.36482 292.65818,306.35366 288.35633,304.59894 284.93537,305.73974 283.12353,304.8363 279.8125,304.65625 277.49186,304.52293 274.98254,308.83483 276.0625,303.9375 272.88407,297.82173 268.68223,304.53386 268.09375,306.9375 271.31676,299.91034 257.83286,299.76205 261.75,306.8125 261.7612,312.69713 259.78275,320.57142 268.28125,317.96875 268.59248,308.48804 268.20864,317.68312 272.71875,317.96875 277.00947,318.6193 275.51758,315.64139 279.1875,318.0625 282.21505,319.37802 284.72724,315.47702 287.09375,317.9375 291.39325,318.67243 295.06394,317.16447 299.40625,318.21875 304.76212,317.581 310.51466,318.16418 316.15625,317.96875 317.4587,324.36587 327.85793,323.18939 329.21875,318 332.11023,318.89827 334.44487,316.63953 336.46875,317.96875 339.93698,317.90558 345.75345,318.30471 347.1875,317.34375 350.12459,319.50241 353.72997,316.69798 356,317.96875 363.01042,317.96875 370.02083,317.96875 377.03125,317.96875 376.40425,315.69822 380.14561,319.37418 381.75,318.15625 385.0407,316.88706 387.17393,318.5086 391.09375,317.96875 391.00688,316.12913 388.75054,307.85999 392.90625,312.375 395.3928,309.00852 394.79498,304.43002 390.5625,304.4375 386.71901,304.57591 384.42726,305.89446 381.125,304.625 378.12708,303.65805 376.34226,308.48079 374.53125,305.3125 371.59363,303.69536 368.64667,305.83322 365.6875,304.625 363.75895,303.85925 359.51372,306.62602 359.9375,302.71875 357.87331,298.75133 353.11765,302.31545 353.5,305.09375 352.58104,305.17952 348.91043,303.7732 347.21875,305.53125 345.37218,308.40472 343.60673,303.30863 340.6875,304.6875 340.0938,302.74398 342.35971,298.63076 338.46875,300.28125 z M 434.78125,300.4375 C 432.33049,300.7677 429.89204,302.4425 429.375,304.96875 427.34146,305.43068 423.91144,303.72895 421.34375,305.53125 418.58137,302.96875 413.27069,306.55285 411.88477,303.87762 411.46252,301.40244 406.33028,304.50274 404.15625,302.09375 399.83078,300.16879 394.3715,304.42532 396.25,309.09375 395.4469,312.82058 395.03606,317.68363 399.875,318.0625 402.08799,318.91349 404.87445,317.24428 406.09375,316.40625 409.37045,320.11145 414.62933,316.7268 418.78125,317.96875 418.53356,316.61272 417.56158,308.55665 419.28125,312.03125 417.38737,315.8108 422.13197,319.64035 425.65625,317.8125 429.86901,317.65707 435.03068,318.83957 439.4375,317.59375 441.40109,315.27838 443.51282,319.41525 446.25,318.125 449.59915,317.83892 451.978,315.34518 450.75,312.09375 451.59038,307.43151 446.94516,302.53851 442.34375,305.3125 440.24305,307.18122 441.16262,305.85316 440.875,303.84375 440.12793,301.24956 437.2776,300.15847 434.78125,300.4375 z M 301.46875,304.46875 C 301.53071,305.64342 301.38738,303.76182 301.46875,304.46875 z M 439.53125,308.59375 C 439.71579,309.42475 438.8604,308.6706 439.53125,308.59375 z M 301.28125,310.5625 C 302.78988,310.44646 300.07626,312.57399 301.28125,310.5625 z M 411.71875,310.5625 C 413.28235,310.39578 410.507,312.593 411.71875,310.5625 z"
         id="text4066"
         inkscape:connector-curvature="0" />
      <path
         style="font-size:18px;font-style:normal;font-variant:normal;font-weight:bold;font-stretch:normal;text-align:start;line-height:100%;letter-spacing:0px;word-spacing:0px;writing-mode:lr-tb;text-anchor:start;fill:#ffffff;fill-opacity:1;stroke:none;font-family:Fontin Sans;-inkscape-font-specification:Fontin Sans Bold"
         d="M 267.59375,146.90625 C 261.49421,144.73056 264.30677,151.78442 263,152.3125 260.34657,149.70491 255.17106,153.17848 253.91602,150.50262 252.67282,147.4024 244.55584,151.81442 245.71875,151.625 241.57782,150.59554 237.23538,151.74316 233.0625,151.28125 229.66496,151.08823 228.98031,152.92827 226.375,151.40625 224.03291,150.86991 221.40039,151.55837 219.78125,153.375 227.04687,147.06492 217.57758,148.70179 213.84375,148.5625 205.32631,145.94365 209.26862,154.17807 208.53125,159.4375 206.30058,166.9572 214.48764,163.93828 217.75,164.59375 221.43655,164.12797 226.1235,166.14696 229,162.84375 231.42349,167.54124 238.30482,163.87398 235.25,157.84375 238.52857,158.45772 234.05815,167.30186 240.625,164.59375 244.08458,165.12266 248.07933,163.78669 249.9375,164.53125 252.73607,165.46761 255.1308,163.40368 257.75,164.84375 261.84884,164.32567 265.85703,164.74591 270.25,164.59375 269.68778,162.23584 273.74896,166.22326 275.53125,164.6875 278.48243,163.50007 280.67876,165.20648 284.34375,164.59375 283.81093,160.98555 282.79181,155.80078 286.51461,158.02376 289.17342,154.81214 287.52953,151.10022 283.90625,151.0625 280.06586,151.18904 277.7521,152.52886 274.46875,151.25 271.77173,150.50251 268.52916,155.22352 269.8125,150 269.46976,147.9087 271.14068,145.71099 267.59375,146.90625 z M 328.1875,147.0625 C 325.70169,147.3464 323.22906,149.04988 322.6875,151.59375 320.64771,152.01598 317.23033,150.36692 314.65625,152.15625 311.96738,149.58846 306.5409,153.18104 305.25718,150.50511 305.06577,147.87257 299.96619,151.21989 297.9375,148.90625 293.5105,146.5056 287.45659,151.04546 289.65625,155.90625 288.70582,159.58164 288.42528,164.21412 293.0625,164.65625 295.36566,165.62109 298.12076,163.77777 299.5,163.09375 302.32795,166.66166 307.25614,163.40826 310.875,164.59375 313.76585,164.61988 310.37707,159.53322 311.8125,157.53125 313.50546,158.62834 311.03216,162.18243 313.65625,163.625 317.26921,166.13839 321.59891,163.75254 325.59375,164.59375 328.48706,164.65422 332.1574,165.40118 334.3125,163.21875 337.49185,166.64099 346.42685,164.37015 343.8125,158.96875 345.51577,154.12673 339.67354,148.73458 335.09375,152.25 333.28353,154.47481 335.1652,148.10992 332.15625,147.875 330.96241,147.17244 329.559,146.91359 328.1875,147.0625 z M 219,154.5 C 218.29411,157.04162 216.75985,158.32664 219,154.5 z M 332.84375,155.25 C 332.69787,156.09081 332.31837,155.12598 332.84375,155.25 z M 253.75,157.1875 C 256.14267,156.39567 252.34914,159.41822 253.75,157.1875 z M 305.03125,157.1875 C 306.59485,157.02078 303.8195,159.218 305.03125,157.1875 z M 224.53125,157.46875 C 224.60811,159.84402 224.26032,157.94396 224.53125,157.46875 z"
         id="text4070"
         inkscape:connector-curvature="0" />
      <path
         style="font-size:18px;font-style:normal;font-variant:normal;font-weight:bold;font-stretch:normal;text-align:start;line-height:100%;letter-spacing:0px;word-spacing:0px;writing-mode:lr-tb;text-anchor:start;fill:#ffffff;fill-opacity:1;stroke:none;font-family:Fontin Sans;-inkscape-font-specification:Fontin Sans Bold"
         d="M 248.875,26.5 C 242.4187,23.940502 246.11774,32.286763 243.9375,31.5 241.14771,29.839278 238.32794,32.194272 235.5625,30.8125 232.56551,29.958312 229.11391,32.541447 226.53125,31.03125 223.93365,30.447509 221.7906,31.990922 219.3125,30.8125 216.31181,30.421727 210.68263,31.905937 211.59375,31.75 208.82495,29.014539 202.34472,33.747378 202.8125,28.9375 198.0321,31.294566 193.01986,25.460152 188.59375,29.34375 185.13526,32.665564 187.9965,37.921217 186.59375,42.03125 189.14631,45.054832 194.42633,45.071763 196.90625,42.5625 199.07766,46.274867 203.17478,42.750364 205.9375,44.375 222.37703,43.96592 240.16917,44.292578 257.1875,44.1875 256.6954,42.186381 260.3618,45.569134 261.90625,44.34375 265.44386,43.138009 268.30387,44.746536 272.53125,44.1875 277.5,44.1875 282.46875,44.1875 287.4375,44.1875 286.12435,39.75039 289.26305,30.832875 282.03125,30.8125 278.19936,32.0904 274.93695,29.700019 271.0625,31.125 270.76458,29.852689 269.31147,25.991104 266.4375,27.34375 263.18909,27.804961 265.50552,33.321901 262.25,30.96875 259.86229,29.865539 257.14936,32.513054 255.84375,32.625 254.68894,29.826766 249.61763,32.35761 251.09375,28.5 251.25919,25.862726 251.47482,26.119954 248.875,26.5 z M 202.5625,36.78125 C 204.44786,36.25116 201.34377,38.700499 202.5625,36.78125 z"
         id="text4074"
         inkscape:connector-curvature="0" />
      <text
         sodipodi:linespacing="100%"
         id="text3876"
         y="801.19574"
         x="585.21368"
         style="font-size:18px;font-style:normal;font-variant:normal;font-weight:bold;font-stretch:normal;text-align:start;line-height:100%;letter-spacing:0px;word-spacing:0px;writing-mode:lr;text-anchor:start;fill:#000000;fill-opacity:1;stroke:none;font-family:Fontin Sans;-inkscape-font-specification:Fontin Sans Bold"
         xml:space="preserve"><tspan
           y="801.19574"
           x="585.21368"
           id="tspan3878"
           sodipodi:role="line">↓</tspan></text>
      <text
         sodipodi:linespacing="100%"
         id="text3872"
         y="784.6463"
         x="522.22412"
         style="font-size:18px;font-style:normal;font-variant:normal;font-weight:bold;font-stretch:normal;text-align:start;line-height:100%;letter-spacing:0px;word-spacing:0px;writing-mode:lr-tb;text-anchor:start;fill:#000000;fill-opacity:1;stroke:none;font-family:Fontin Sans;-inkscape-font-specification:Fontin Sans Bold"
         xml:space="preserve"><tspan
           y="784.6463"
           x="522.22412"
           id="tspan3874"
           sodipodi:role="line">Stuttgart</tspan></text>
      <text
         sodipodi:linespacing="100%"
         id="text3894"
         y="751.71893"
         x="422.76746"
         style="font-size:18px;font-style:normal;font-variant:normal;font-weight:bold;font-stretch:normal;text-align:start;line-height:100%;letter-spacing:0px;word-spacing:0px;writing-mode:lr-tb;text-anchor:start;fill:#000000;fill-opacity:1;stroke:none;font-family:Fontin Sans;-inkscape-font-specification:Fontin Sans Bold"
         xml:space="preserve"><tspan
           y="751.71893"
           x="422.76746"
           id="tspan3896"
           sodipodi:role="line">Zuffenhausen Rathaus</tspan></text>
      <text
         xml:space="preserve"
         style="font-size:18px;font-style:normal;font-variant:normal;font-weight:bold;font-stretch:normal;text-align:start;line-height:100%;letter-spacing:0px;word-spacing:0px;writing-mode:lr-tb;text-anchor:start;fill:#000000;fill-opacity:1;stroke:none;font-family:Fontin Sans;-inkscape-font-specification:Fontin Sans Bold"
         x="518.24042"
         y="666.85406"
         id="text3900"
         sodipodi:linespacing="100%"><tspan
           sodipodi:role="line"
           id="tspan3902"
           x="518.24042"
           y="666.85406">Kirchtalstraße</tspan></text>
      <text
         sodipodi:linespacing="100%"
         id="text3906"
         y="536.20679"
         x="351.86063"
         style="font-size:18px;font-style:normal;font-variant:normal;font-weight:bold;font-stretch:normal;text-align:start;line-height:100%;letter-spacing:0px;word-spacing:0px;writing-mode:lr-tb;text-anchor:start;fill:#000000;fill-opacity:1;stroke:none;font-family:Fontin Sans;-inkscape-font-specification:Fontin Sans Bold"
         xml:space="preserve"><tspan
           y="536.20679"
           x="351.86063"
           id="tspan3908"
           sodipodi:role="line">Salzwiesenstraße</tspan></text>
      <text
         xml:space="preserve"
         style="font-size:18px;font-style:normal;font-variant:normal;font-weight:bold;font-stretch:normal;text-align:start;line-height:100%;letter-spacing:0px;word-spacing:0px;writing-mode:lr-tb;text-anchor:start;fill:#000000;fill-opacity:1;stroke:none;font-family:Fontin Sans;-inkscape-font-specification:Fontin Sans Bold"
         x="304.96164"
         y="464.74164"
         id="text3912"
         sodipodi:linespacing="100%"><tspan
           sodipodi:role="line"
           id="tspan3914"
           x="304.96164"
           y="464.74164">Wimpfener Straße</tspan></text>
      <text
         sodipodi:linespacing="100%"
         id="text3918"
         y="315.97186"
         x="262.01093"
         style="font-size:18px;font-style:normal;font-variant:normal;font-weight:bold;font-stretch:normal;text-align:start;line-height:100%;letter-spacing:0px;word-spacing:0px;writing-mode:lr-tb;text-anchor:start;fill:#000000;fill-opacity:1;stroke:none;font-family:Fontin Sans;-inkscape-font-specification:Fontin Sans Bold"
         xml:space="preserve"><tspan
           y="315.97186"
           x="262.01093"
           id="tspan3920"
           sodipodi:role="line">Heutingsheimer Straße</tspan></text>
      <text
         xml:space="preserve"
         style="font-size:18px;font-style:normal;font-variant:normal;font-weight:bold;font-stretch:normal;text-align:start;line-height:100%;letter-spacing:0px;word-spacing:0px;writing-mode:lr-tb;text-anchor:start;fill:#000000;fill-opacity:1;stroke:none;font-family:Fontin Sans;-inkscape-font-specification:Fontin Sans Bold"
         x="208.77298"
         y="162.59698"
         id="text3924"
         sodipodi:linespacing="100%"><tspan
           sodipodi:role="line"
           id="tspan3926"
           x="208.77298"
           y="162.59698">Korntaler Straße</tspan></text>
      <text
         sodipodi:linespacing="100%"
         id="text3930"
         y="42.185154"
         x="187.84895"
         style="font-size:18px;font-style:normal;font-variant:normal;font-weight:bold;font-stretch:normal;text-align:start;line-height:100%;letter-spacing:0px;word-spacing:0px;writing-mode:lr-tb;text-anchor:start;fill:#000000;fill-opacity:1;stroke:none;font-family:Fontin Sans;-inkscape-font-specification:Fontin Sans Bold"
         xml:space="preserve"><tspan
           y="42.185154"
           x="187.84895"
           id="tspan3932"
           sodipodi:role="line">Stammheim</tspan></text>
    </g>
  </g>
</svg>
