<?xml version="1.0" encoding="UTF-8" standalone="no"?>
<!-- Created with Inkscape (http://www.inkscape.org/) -->

<svg
   xmlns:dc="http://purl.org/dc/elements/1.1/"
   xmlns:cc="http://creativecommons.org/ns#"
   xmlns:rdf="http://www.w3.org/1999/02/22-rdf-syntax-ns#"
   xmlns:svg="http://www.w3.org/2000/svg"
   xmlns="http://www.w3.org/2000/svg"
   xmlns:xlink="http://www.w3.org/1999/xlink"
   xmlns:sodipodi="http://sodipodi.sourceforge.net/DTD/sodipodi-0.dtd"
   xmlns:inkscape="http://www.inkscape.org/namespaces/inkscape"
   width="751.12646"
   height="1189.064"
   id="svg2"
   version="1.1"
   inkscape:version="0.48.3.1 r9886"
   sodipodi:docname="Toulouse.svg"
   inkscape:export-filename="/home/marian/uni/schiene/presentation/data/Toulouse.png"
   inkscape:export-xdpi="180"
   inkscape:export-ydpi="180">
  <defs
     id="defs4" />
  <sodipodi:namedview
     id="base"
     pagecolor="#ffffff"
     bordercolor="#666666"
     borderopacity="1.0"
     inkscape:pageopacity="0.0"
     inkscape:pageshadow="2"
     inkscape:zoom="0.58546153"
     inkscape:cx="554.35965"
     inkscape:cy="634.10934"
     inkscape:document-units="px"
     inkscape:current-layer="layer1"
     showgrid="false"
     fit-margin-top="0"
     fit-margin-left="0"
     fit-margin-right="0"
     fit-margin-bottom="0"
     inkscape:window-width="1440"
     inkscape:window-height="882"
     inkscape:window-x="0"
     inkscape:window-y="18"
     inkscape:window-maximized="0" />
  <metadata
     id="metadata7">
    <rdf:RDF>
      <cc:Work
         rdf:about="">
        <dc:format>image/svg+xml</dc:format>
        <dc:type
           rdf:resource="http://purl.org/dc/dcmitype/StillImage" />
        <dc:title></dc:title>
      </cc:Work>
    </rdf:RDF>
  </metadata>
  <g
     inkscape:label="Layer 1"
     inkscape:groupmode="layer"
     id="layer1"
     transform="translate(-3.375633,284.39053)">
    <image
       y="125.86218"
       x="-30.5"
       id="image3044"
       xlink:href="file:///home/marian/uni/schiene/presentation/data/Toulouse-raw-1.png"
       height="813"
       width="811" />
    <image
       y="-325.13782"
       x="-84.5"
       id="image3106"
       xlink:href="file:///home/marian/uni/schiene/presentation/data/Toulouse-raw-2.png"
       height="816"
       width="1010" />
    <path
       style="font-size:medium;font-style:normal;font-variant:normal;font-weight:normal;font-stretch:normal;text-indent:0;text-align:start;text-decoration:none;line-height:normal;letter-spacing:normal;word-spacing:normal;text-transform:none;direction:ltr;block-progression:tb;writing-mode:lr-tb;text-anchor:start;baseline-shift:baseline;color:#000000;fill:#ffffff;fill-opacity:1;stroke:none;stroke-width:8;marker:none;visibility:visible;display:inline;overflow:visible;enable-background:accumulate;font-family:Sans;-inkscape-font-specification:Sans"
       d="M 43.28125,-273.28125 C 34.352765,-273.36889 30.924011,-260.93468 36.625,-255.03125 41.64267,-243.75396 46.461463,-228.70621 60.125,-225.6875 74.261725,-224.6181 88.393573,-229.79979 102,-230.59375 105.85024,-225.1569 107.58716,-218.19979 111.38474,-212.55745 131.5001,-173.62291 154.67212,-135.97993 173.0625,-96.34375 175.42298,-82.352429 168.78189,-67.364663 175.49468,-54.079598 183.72309,-28.163709 193.14683,-2.5450664 200.125,23.6875 196.88351,32.589895 198.70923,44.444381 208.03125,48.90625 213.73259,52.449997 220.46278,54.955413 226.25,57.78125 225.34151,70.589896 234.7023,81.283323 236.6875,93.625 241.1895,105.91703 254.31399,110.89627 265.46875,115.5 269.45809,117.00122 272.51053,120.44831 272.1999,124.83996 277.77827,144.03939 281.7866,163.89611 289.34375,182.34375 297.79287,193.03868 312.99568,189.61658 324.87356,190.51339 339.51891,191.41666 354.02888,188.20678 367.25,182.0625 369.8131,182.00585 366.53128,187.14032 368.14908,188.54995 372.46761,233.54968 375.98945,278.83664 382.375,323.5 388.31195,342.54739 398.60327,359.76901 406.63732,377.97989 413.59225,392.45246 422.56447,406.18702 433.5,417.6875 437.7356,429.95911 434.12967,443.5186 435.88579,456.34238 436.81073,481.82903 435.7502,507.5292 438.21875,532.875 441.70073,543.39984 453.62578,547.97974 464,546.71875 472.15463,547.32341 483.98154,545.11257 488.15625,553.875 490.67331,563.87224 486.09654,575.98704 493.5625,584.4375 496.47525,593.22232 493.65817,602.74197 494.90625,611.8125 495.05158,629.35708 498.45903,647.27528 494.875,664.5625 494.20004,673.3032 500.69002,680.38456 508.26022,683.7558 540.46001,704.04628 572.25347,724.97832 604.3125,745.5 604.26008,760.88739 603.25582,776.59698 597.818,791.01421 591.31875,809.90064 586.31289,829.21417 580.11734,848.18498 578.03823,856.97782 573.55192,868.11097 581.3125,875.4375 590.48825,885.26335 605.03705,881.26969 616.83627,880.82724 631.88502,880.13215 647.06473,876.64902 662.0625,878.03125 671.68548,880.79591 679.60281,888.61326 690.03125,889.03125 696.52812,890.01084 705.14134,887.02886 704.90625,879.21875 705.43902,872.98751 699.47507,867.54218 693.28125,869.125 682.58473,868.37554 675.20858,858.49415 664.34375,857.84375 651.60208,856.19248 638.86293,859.19922 626.10331,859.88282 616.60104,860.83231 607.06051,861.74173 597.5,861.53125 604.4718,833.10624 615.27403,805.76799 622.21875,777.34375 624.32853,766.66111 623.64278,755.68482 624.65625,744.875 625.38586,734.84941 616.69927,728.53075 608.95644,724.26438 577.45019,705.02805 546.87313,684.12636 515.53125,664.5625 518.44924,650.71545 515.13346,636.4305 515.40625,622.40625 514.58951,608.12119 515.63584,593.46042 513.28125,579.40625 511.09618,574.53095 506.82375,569.46539 509.375,563.84375 511.39917,547.07547 499.29454,528.73972 481.75,527.71875 473.7294,526.1306 464.84252,527.76521 457.1875,525.5625 456.21109,519.4154 457.95878,513.08288 456.77517,506.87715 455.73758,475.99887 456.90291,444.93526 453.90625,414.1875 450.11976,401.5898 437.37003,394.72751 432.18576,382.78742 420.15525,362.4058 410.66055,340.5625 401.84375,318.53125 397.62088,296.70475 397.59034,274.22245 394.3125,252.28125 391.28575,224.77404 389.83013,196.95005 385.65625,169.65625 381.20556,159.59802 367.49985,158.48479 359.09375,164.03125 347.36265,168.92913 334.77065,171.8621 322.09375,170.25 316.64322,170.30057 310.93842,170.86137 305.6875,169.59375 299.5483,150.92645 295.24096,131.76896 289.53125,113 286.50279,101.01407 273.30933,97.279601 263.4375,92.71875 252.30438,89.499151 253.90758,76.089777 249.09375,67.875 243.74537,60.536479 248.35199,49.343542 240.5,43.21875 234.64316,37.522047 225.3138,36.706182 219.1875,32.125 218.63638,28.520532 221.24397,24.725927 220.1875,20.84375 218.42844,10.257132 213.54929,0.47996145 211.03125,-10 204.88213,-29.86733 197.06535,-49.420399 192.5,-69.625 193.48889,-83.918331 195.96849,-99.338123 188.25,-112.28125 164.89044,-156.08315 140.76077,-199.69065 117.5,-243.625 110.71466,-252.39263 98.315739,-252.01959 88.699326,-249.06541 80.3695,-247.89895 72.025541,-245.12405 63.625,-246.0625 56.391728,-253.74043 57.107734,-267.15335 47.40625,-272.65625 46.147481,-273.17162 44.690994,-273.4167 43.28125,-273.28125 z"
       id="path3887"
       inkscape:connector-curvature="0" />
    <path
       style="opacity:1;fill:none;stroke:#cc0000;stroke-width:8;stroke-linecap:round;stroke-miterlimit:4;stroke-dasharray:none"
       d="M 691.66998,1163.2305 C 689.3783,1163.1611 687.04122,1163.4814 684.79494,1163.0222 674.71248,1160.9612 666.32521,1151.3059 656.04481,1151.7721 634.52643,1152.7478 615.27476,1155.4977 594.16951,1156.3555 589.95453,1156.5268 583.42387,1153.6972 583.54446,1149.4804 583.7404,1142.6291 586.30109,1135.8891 588.33615,1129.272 594.37224,1109.6455 599.82269,1090.2201 606.46123,1070.3134 608.1675,1065.1969 609.65533,1059.8717 609.79458,1054.48 610.02498,1045.559 610.96434,1038.4299 611.25292,1030.1049 611.35211,1027.2433 610.35148,1023.6996 607.91958,1022.1882 567.29495,996.94104 542.79145,979.7773 505.41908,956.77119 502.93248,955.24046 500.68153,951.6024 501.66907,948.85448 503.30023,944.31563 503.51698,940.69352 503.33574,936.56276 502.35383,914.18349 501.26805,893.32759 501.2524,870.72911 501.24855,865.16962 495.33877,860.66294 495.41904,855.10403 495.50929,848.8534 496.69196,843.05315 495.00237,837.39562 493.76168,833.24121 491.56872,828.99119 488.12734,826.3539 483.75057,822.99977 477.7301,821.84604 472.29393,821.56221 465.83838,821.22516 459.66132,820.62043 452.91883,820.72887 448.49887,820.79996 443.79881,815.56578 443.75212,811.14549 443.41136,778.88785 442.37874,743.46443 441.87711,709.27 441.78876,703.24774 439.98304,696.32463 435.41875,692.39492 427.38068,685.47438 420.38957,673.09699 414.58532,662.39478 406.12022,646.78634 399.86484,631.07872 392.29354,615.51955 389.48451,609.74694 387.72268,603.36586 387.08519,596.9778 382.50294,551.06097 377.17283,503.00449 373.75179,460.72715 373.36752,455.97832 369.31026,453.94594 365.21008,455.51879 358.3937,458.13359 352.46057,459.88857 345.83499,462.39382 341.7448,463.94039 337.29,464.58843 332.91826,464.6855 321.27057,464.94413 311.31578,464.78587 301.04311,464.26883 297.75322,464.10324 293.78726,461.82111 292.91807,458.6438 287.3307,438.21918 281.76145,419.8034 276.45966,399.06019 275.89978,396.86965 273.84657,395.1692 271.8763,394.06016 265.52586,390.48558 259.61156,387.25693 253.04773,384.87234 247.21024,382.75162 243.01125,376.6213 241.45949,370.72672 239.87995,364.72662 237.92183,358.90202 235.00112,353.22663 233.28104,349.88425 232.56764,345.94125 232.70945,342.18491 232.83818,338.77488 231.18529,334.1161 227.91776,333.22654 221.95796,331.60402 216.81558,327.83313 209.84405,324.81469 206.49508,323.3647 203.80583,319.09284 205.83432,313.64311 207.39076,309.46159 207.18563,305.96532 206.04265,302.39306 198.6139,279.17538 190.26176,253.10155 182.0842,228.43437 180.28405,223.00432 178.16848,217.22505 178.95919,211.55929 180.57406,199.98806 181.82235,187.9682 176.66751,178.01746 155.32329,136.81526 132.13701,97.360228 107.50051,48.850176 105.7562,45.415582 101.07335,42.69765 97.292132,43.433484 85.149948,45.796382 73.707376,47.542814 61.250293,49.058511 56.641857,49.619236 51.823717,45.315993 49.791905,41.141806 46.394663,34.162457 43.541875,27.808409 40.41686,21.14171"
       id="path3885"
       inkscape:connector-curvature="0"
       transform="translate(3.375633,-284.39053)"
       sodipodi:nodetypes="casssssssssssssaasssssssssssssssssssssssssssssssc" />
  </g>
</svg>
